<svg xmlns="http://www.w3.org/2000/svg" width="101.277" height="122.918" viewBox="0 0 101.277 122.918">
  <g id="accesibility-sign" transform="translate(-8.336)">
    <g id="Group_14" data-name="Group 14" transform="translate(8.336)">
      <g id="Group_13" data-name="Group 13" transform="translate(0 42.066)">
        <path id="Path_27" data-name="Path 27" d="M50.782,98.874a28.049,28.049,0,0,1-15.2-51.632L32.735,32.406a42.434,42.434,0,1,0,48.535,67.9L75.131,84.748A28.209,28.209,0,0,1,50.782,98.874Z" transform="translate(-8.336 -32.406)" fill="#06e5fc"/>
      </g>
      <path id="Path_28" data-name="Path 28" d="M104.16,112.144,84.728,62.867a7.856,7.856,0,0,0-7.633-6l-20.91-.027-1.462-7.609H77.257a7.879,7.879,0,1,0,0-15.759H51.7l-1.3-6.773.7-.728a15.314,15.314,0,1,0-17.105,3.393l.941.409,7,36.43c.027.127.053.226.08.327l.228.787c.04.113.082.234.129.349l.114.261c.071.157.135.295.2.427l.129.232c.078.136.162.279.251.414l.132.2c.1.138.2.276.308.41l.119.151c.121.143.247.28.375.414l.1.1c.173.175.328.314.488.449l.118.105c.138.112.33.254.527.391l.2.123c.123.079.261.167.408.247l.17.087c.222.112.352.179.485.239l.235.1c.18.071.314.122.452.167l.269.083c.16.048.319.086.48.125l.24.053c.186.035.382.065.579.086l.153.023c.218.022.456.038.7.04l.112,0,21.913.027,17.876,45.3a7.879,7.879,0,0,0,14.659-5.779Z" transform="translate(-3.433)" fill="#06e5fc"/>
    </g>
  </g>
</svg>
