<svg xmlns="http://www.w3.org/2000/svg" width="143.024" height="106.319" viewBox="0 0 143.024 106.319">
  <g id="creative-common" transform="translate(0 -65.699)">
    <g id="Group_15" data-name="Group 15" transform="translate(0 65.699)">
      <path id="Path_29" data-name="Path 29" d="M0,65.7v85.852H49.444v20.468L90.38,151.551h52.645V65.7Zm69.032,56.2a15.139,15.139,0,0,1-3.747,2.687,20.571,20.571,0,0,1-9.147,2.222,16.436,16.436,0,0,1-7.313-1.628,18.494,18.494,0,0,1-5.736-4.315,19.733,19.733,0,0,1-3.721-6.1,19.069,19.069,0,0,1-1.318-6.925,18.521,18.521,0,0,1,1.24-6.589,17.97,17.97,0,0,1,3.618-5.865A18.376,18.376,0,0,1,48.7,91.207a18.034,18.034,0,0,1,7.752-1.6,17.446,17.446,0,0,1,8.966,2.222,14.377,14.377,0,0,1,5.659,5.788l-6.512,4.548a7.575,7.575,0,0,0-1.576-2.4,8.6,8.6,0,0,0-4.418-2.377,12.1,12.1,0,0,0-2.326-.233A8.754,8.754,0,0,0,52,98.131a9.324,9.324,0,0,0-3,2.532,10.521,10.521,0,0,0-1.757,3.514,14.231,14.231,0,0,0-.568,3.979,13.144,13.144,0,0,0,.672,4.186,11.136,11.136,0,0,0,1.938,3.566,9.354,9.354,0,0,0,3.049,2.455,8.72,8.72,0,0,0,4,.9,10.284,10.284,0,0,0,2.351-.284,9.488,9.488,0,0,0,2.326-.879,8.3,8.3,0,0,0,2.041-1.55,7.255,7.255,0,0,0,1.5-2.351l6.925,4.083A10.783,10.783,0,0,1,69.032,121.9Zm34.16,0a15.139,15.139,0,0,1-3.747,2.687,20.574,20.574,0,0,1-9.147,2.222,16.436,16.436,0,0,1-7.313-1.628,18.5,18.5,0,0,1-5.737-4.316,19.733,19.733,0,0,1-3.721-6.1,19.064,19.064,0,0,1-1.318-6.925,18.52,18.52,0,0,1,1.24-6.589,17.97,17.97,0,0,1,3.618-5.865,18.374,18.374,0,0,1,5.788-4.186,18.034,18.034,0,0,1,7.752-1.6,17.445,17.445,0,0,1,8.966,2.222,14.377,14.377,0,0,1,5.659,5.788l-6.511,4.548a7.575,7.575,0,0,0-1.576-2.4,8.6,8.6,0,0,0-4.418-2.377A12.107,12.107,0,0,0,90.4,97.15a8.754,8.754,0,0,0-4.238.982,9.319,9.319,0,0,0-3,2.532,10.511,10.511,0,0,0-1.757,3.514,14.231,14.231,0,0,0-.568,3.979,13.144,13.144,0,0,0,.672,4.186,11.136,11.136,0,0,0,1.938,3.566,9.351,9.351,0,0,0,3.049,2.455,8.72,8.72,0,0,0,4.005.9,10.287,10.287,0,0,0,2.351-.284,9.484,9.484,0,0,0,2.326-.879,8.3,8.3,0,0,0,2.041-1.55,7.255,7.255,0,0,0,1.5-2.351l6.925,4.083A10.794,10.794,0,0,1,103.192,121.9Z" transform="translate(0 -65.699)" fill="#06e5fc"/>
    </g>
  </g>
</svg>
