<svg xmlns="http://www.w3.org/2000/svg" width="143.024" height="178.862" viewBox="0 0 143.024 178.862">
  <g id="XMLID_122_" transform="translate(-47.949 0)">
    <g id="Group_17" data-name="Group 17" transform="translate(47.949 0)">
      <path id="Path_31" data-name="Path 31" d="M189.791,75a102.427,102.427,0,0,0,1.182-13.968c-.04-22.141-10.639-29.975-12.678-33.648,3-16.776-.5-24.407-2.126-27.019-6.006-2.132-20.894,5.5-29.029,10.875-13.263-3.882-41.293-3.5-51.8,1C75.942-1.64,65.685.477,65.685.477s-6.631,11.891-1.753,29.288C57.551,37.9,52.794,43.646,52.794,58.9a90.057,90.057,0,0,0,.612,10.424c5.5,28.895,28.391,41.36,50.881,43.51-3.384,2.572-7.447,7.438-8.009,13.077-4.252,2.749-12.806,3.658-19.458,1.567-9.32-2.945-12.888-21.4-26.845-18.768-3.02.565-2.42,2.557.2,4.255a27.444,27.444,0,0,1,11.344,13.523c2.371,5.633,7.357,15.689,23.123,15.689a70.7,70.7,0,0,0,10.642-.74s.119,14.353.119,19.95c0,6.442-8.694,8.251-8.694,11.341,0,1.229,2.878,1.346,5.19,1.346,4.57,0,14.079-3.807,14.079-10.5,0-5.321.085-23.2.085-26.332,0-6.842,3.666-9.02,3.666-9.02s.449,36.522-.882,41.418c-1.561,5.758-4.389,4.94-4.389,7.5,0,3.824,11.431.935,15.223-7.436,2.933-6.538,1.62-42.353,1.62-42.353l3.058-.067s.035,16.4-.07,23.9c-.11,7.762-.911,17.574,3.7,22.2,3.026,3.046,12.3,8.39,12.3,3.506,0-2.83-6.492-5.17-6.492-12.838V128.725c3.944,0,4.759,11.612,4.759,11.612l1.422,21.573s-.944,7.872,8.5,11.157c3.335,1.168,10.471,1.486,10.805-.475s-8.592-4.872-8.676-10.965c-.046-3.711.166-5.883.166-22.024s-2.167-22.1-9.719-26.856C162.947,110.5,185.693,100.719,189.791,75Z" transform="translate(-47.949 0)" fill="#06e5fc"/>
    </g>
  </g>
</svg>
