<svg xmlns="http://www.w3.org/2000/svg" viewBox="0 0 988 1072">
<defs>
<style>
.cls-1{fill:#1ded3b;}
</style>
</defs>
<g id="Laag_2" data-name="Laag 2">
<g id="Laag_1-2" data-name="Laag 1">
<rect class="cls-1" width="988" height="1072"/>
<path d="M172,154c0-3.91.28-13.72.4-17.67a2.47,2.47,0,0,1,.89-1.89c.77-.61,1.78-2.67,1.64-9.36-.23-10.7-16.29-55.25-58.88-55h0c-42.6-.2-58.65,44.35-58.88,55.05-.14,6.69.86,8.75,1.63,9.36a2.45,2.45,0,0,1,.9,1.89c.12,3.95.4,13.76.4,17.67a9,9,0,0,1-1,4.48A9.1,9.1,0,0,0,58,164.2c3,20.54,7.1,29.52,9.54,33.25a5.33,5.33,0,0,0,4.19,2.43c8.36.42,12.8,6.54,14.85,10.67a5.47,5.47,0,0,0,6,2.93,82.1,82.1,0,0,0,11.7-3.23,14.57,14.57,0,0,0,2-.91,7.51,7.51,0,0,0,3.31-8.91L91.91,148a6,6,0,0,0-1.66-2.6c-6-5.32-19.34,4-19.34,4-3.6,2.25-3.8,9.37-3.8,9.37V134.78a41.61,41.61,0,0,1,1.46-11c11.6-42.06,46.27-41.48,47.49-41.44h0c1.21,0,35.88-.62,47.48,41.44a41.21,41.21,0,0,1,1.47,11v24.06s-.2-7.12-3.81-9.37c0,0-13.35-9.35-19.33-4a6,6,0,0,0-1.66,2.6l-17.6,52.39a7.5,7.5,0,0,0,3.31,8.91,14,14,0,0,0,2,.91,82.36,82.36,0,0,0,11.69,3.23,5.48,5.48,0,0,0,6-2.93c2-4.13,6.49-10.25,14.85-10.67a5.37,5.37,0,0,0,4.19-2.43c2.44-3.73,6.54-12.71,9.54-33.25a9.1,9.1,0,0,0-1.14-5.75A9,9,0,0,1,172,154Z"/>
<path d="M369,354.42c0-3.91.28-13.72.4-17.67a2.47,2.47,0,0,1,.89-1.89c.77-.61,1.77-2.67,1.63-9.36-.22-10.7-16.28-55.25-58.87-55.05h0c-42.59-.2-58.65,44.35-58.87,55.05-.14,6.69.86,8.75,1.63,9.36a2.47,2.47,0,0,1,.89,1.89c.12,3.95.4,13.76.4,17.67a9.1,9.1,0,0,1-1,4.48,9,9,0,0,0-1.15,5.75c3,20.54,7.1,29.52,9.55,33.25a5.31,5.31,0,0,0,4.19,2.43c8.36.42,12.79,6.54,14.85,10.68a5.47,5.47,0,0,0,6,2.92,82.46,82.46,0,0,0,11.7-3.23,15.17,15.17,0,0,0,2-.91,7.5,7.5,0,0,0,3.3-8.91l-17.59-52.39a6.06,6.06,0,0,0-1.66-2.6c-6-5.32-19.34,4-19.34,4-3.6,2.25-3.8,9.38-3.8,9.38V335.23a41.66,41.66,0,0,1,1.46-11.05c11.6-42.06,46.27-41.48,47.48-41.44h0c1.21,0,35.88-.62,47.48,41.44A41.66,41.66,0,0,1,362,335.23V359.3s-.2-7.13-3.8-9.38c0,0-13.35-9.35-19.34-4a6.06,6.06,0,0,0-1.66,2.6l-17.59,52.39a7.5,7.5,0,0,0,3.3,8.91,15.17,15.17,0,0,0,2,.91,82.46,82.46,0,0,0,11.7,3.23,5.47,5.47,0,0,0,6-2.92c2.06-4.14,6.49-10.26,14.85-10.68a5.31,5.31,0,0,0,4.19-2.43c2.45-3.73,6.55-12.71,9.55-33.25A9,9,0,0,0,370,358.9,9.1,9.1,0,0,1,369,354.42Z"/>
<path d="M534,138.42c0-3.91.28-13.72.4-17.67a2.47,2.47,0,0,1,.89-1.89c.77-.61,1.77-2.67,1.63-9.36-.22-10.7-16.28-55.25-58.87-55h0c-42.59-.2-58.65,44.35-58.87,55.05-.14,6.69.86,8.75,1.63,9.36a2.47,2.47,0,0,1,.89,1.89c.12,4,.4,13.76.4,17.67a9.1,9.1,0,0,1-1,4.48,9,9,0,0,0-1.15,5.75c3,20.54,7.1,29.52,9.55,33.25a5.31,5.31,0,0,0,4.19,2.43c8.36.42,12.79,6.54,14.85,10.68a5.47,5.47,0,0,0,6,2.92,82.46,82.46,0,0,0,11.7-3.23,15.17,15.17,0,0,0,2-.91,7.5,7.5,0,0,0,3.3-8.91l-17.59-52.39a6.06,6.06,0,0,0-1.66-2.6c-6-5.32-19.34,4-19.34,4-3.6,2.25-3.8,9.38-3.8,9.38V119.23a41.66,41.66,0,0,1,1.46-11C442.1,66.12,476.77,66.7,478,66.74h0c1.21,0,35.88-.62,47.48,41.44a41.66,41.66,0,0,1,1.46,11V143.3s-.2-7.13-3.8-9.38c0,0-13.35-9.35-19.34-4a6.06,6.06,0,0,0-1.66,2.6l-17.59,52.39a7.5,7.5,0,0,0,3.3,8.91,15.17,15.17,0,0,0,2,.91,82.46,82.46,0,0,0,11.7,3.23,5.47,5.47,0,0,0,6-2.92c2.06-4.14,6.49-10.26,14.85-10.68a5.31,5.31,0,0,0,4.19-2.43c2.45-3.73,6.55-12.71,9.55-33.25A9,9,0,0,0,535,142.9,9.1,9.1,0,0,1,534,138.42Z"/>
<path d="M609,548.42c0-3.91.28-13.72.4-17.67a2.47,2.47,0,0,1,.89-1.89c.77-.61,1.77-2.67,1.63-9.36-.22-10.7-16.28-55.25-58.87-55.05h0c-42.59-.2-58.65,44.35-58.87,55.05-.14,6.69.86,8.75,1.63,9.36a2.47,2.47,0,0,1,.89,1.89c.12,4,.4,13.76.4,17.67a9.1,9.1,0,0,1-1,4.48,9,9,0,0,0-1.15,5.75c3,20.54,7.1,29.52,9.55,33.25a5.31,5.31,0,0,0,4.19,2.43c8.36.42,12.79,6.54,14.85,10.68a5.47,5.47,0,0,0,6,2.92,82.46,82.46,0,0,0,11.7-3.23,15.17,15.17,0,0,0,2-.91,7.5,7.5,0,0,0,3.3-8.91l-17.59-52.39a6.06,6.06,0,0,0-1.66-2.6c-6-5.32-19.34,4-19.34,4-3.6,2.25-3.8,9.38-3.8,9.38V529.23a41.66,41.66,0,0,1,1.46-11.05c11.6-42.06,46.27-41.48,47.48-41.44h0c1.21,0,35.88-.62,47.48,41.44A41.66,41.66,0,0,1,602,529.23V553.3s-.2-7.13-3.8-9.38c0,0-13.35-9.35-19.34-4a6.06,6.06,0,0,0-1.66,2.6l-17.59,52.39a7.5,7.5,0,0,0,3.3,8.91,15.17,15.17,0,0,0,2,.91,82.46,82.46,0,0,0,11.7,3.23,5.47,5.47,0,0,0,6-2.92c2.06-4.14,6.49-10.26,14.85-10.68a5.31,5.31,0,0,0,4.19-2.43c2.45-3.73,6.55-12.71,9.55-33.25A9,9,0,0,0,610,552.9,9.1,9.1,0,0,1,609,548.42Z"/>
<path d="M916,115.42c0-3.91.28-13.72.4-17.67a2.47,2.47,0,0,1,.89-1.89c.77-.61,1.77-2.67,1.63-9.36-.22-10.7-16.28-55.25-58.87-55h0c-42.59-.2-58.65,44.35-58.87,55.05-.14,6.69.86,8.75,1.63,9.36a2.47,2.47,0,0,1,.89,1.89c.12,4,.4,13.76.4,17.67a9.1,9.1,0,0,1-1,4.48,9,9,0,0,0-1.15,5.75c3,20.54,7.1,29.52,9.55,33.25a5.31,5.31,0,0,0,4.19,2.43c8.36.42,12.79,6.54,14.85,10.68a5.47,5.47,0,0,0,6,2.92,82.46,82.46,0,0,0,11.7-3.23,15.17,15.17,0,0,0,2-.91,7.5,7.5,0,0,0,3.3-8.91l-17.59-52.39a6.06,6.06,0,0,0-1.66-2.6c-6-5.32-19.34,4-19.34,4-3.6,2.25-3.8,9.38-3.8,9.38V96.23a41.66,41.66,0,0,1,1.46-11C824.1,43.12,858.77,43.7,860,43.74h0c1.21,0,35.88-.62,47.48,41.44a41.66,41.66,0,0,1,1.46,11V120.3s-.2-7.13-3.8-9.38c0,0-13.35-9.35-19.34-4a6.06,6.06,0,0,0-1.66,2.6l-17.59,52.39a7.5,7.5,0,0,0,3.3,8.91,15.17,15.17,0,0,0,2,.91,82.46,82.46,0,0,0,11.7,3.23,5.47,5.47,0,0,0,6-2.92c2.06-4.14,6.49-10.26,14.85-10.68a5.31,5.31,0,0,0,4.19-2.43c2.45-3.73,6.55-12.71,9.55-33.25A9,9,0,0,0,917,119.9,9.1,9.1,0,0,1,916,115.42Z"/>
<path d="M819,354.42c0-3.91.28-13.72.4-17.67a2.47,2.47,0,0,1,.89-1.89c.77-.61,1.77-2.67,1.63-9.36-.22-10.7-16.28-55.25-58.87-55.05h0c-42.59-.2-58.65,44.35-58.87,55.05-.14,6.69.86,8.75,1.63,9.36a2.47,2.47,0,0,1,.89,1.89c.12,3.95.4,13.76.4,17.67a9.1,9.1,0,0,1-1,4.48,9,9,0,0,0-1.15,5.75c3,20.54,7.1,29.52,9.55,33.25a5.31,5.31,0,0,0,4.19,2.43c8.36.42,12.79,6.54,14.85,10.68a5.47,5.47,0,0,0,6,2.92,82.46,82.46,0,0,0,11.7-3.23,15.17,15.17,0,0,0,2-.91,7.5,7.5,0,0,0,3.3-8.91l-17.59-52.39a6.06,6.06,0,0,0-1.66-2.6c-6-5.32-19.34,4-19.34,4-3.6,2.25-3.8,9.38-3.8,9.38V335.23a41.66,41.66,0,0,1,1.46-11.05c11.6-42.06,46.27-41.48,47.48-41.44h0c1.21,0,35.88-.62,47.48,41.44A41.66,41.66,0,0,1,812,335.23V359.3s-.2-7.13-3.8-9.38c0,0-13.35-9.35-19.34-4a6.06,6.06,0,0,0-1.66,2.6l-17.59,52.39a7.5,7.5,0,0,0,3.3,8.91,15.17,15.17,0,0,0,2,.91,82.46,82.46,0,0,0,11.7,3.23,5.47,5.47,0,0,0,6-2.92c2.06-4.14,6.49-10.26,14.85-10.68a5.31,5.31,0,0,0,4.19-2.43c2.45-3.73,6.55-12.71,9.55-33.25A9,9,0,0,0,820,358.9,9.1,9.1,0,0,1,819,354.42Z"/>
<path d="M185,637.42c0-3.91.28-13.72.4-17.67a2.47,2.47,0,0,1,.89-1.89c.77-.61,1.77-2.67,1.63-9.36-.22-10.7-16.28-55.25-58.87-55h0c-42.59-.2-58.65,44.35-58.87,55-.14,6.69.86,8.75,1.63,9.36a2.47,2.47,0,0,1,.89,1.89c.12,4,.4,13.76.4,17.67a9.1,9.1,0,0,1-1,4.48,9,9,0,0,0-1.15,5.75c3,20.54,7.1,29.52,9.55,33.25a5.31,5.31,0,0,0,4.19,2.43c8.36.42,12.79,6.54,14.85,10.68a5.47,5.47,0,0,0,6,2.92,82.46,82.46,0,0,0,11.7-3.23,15.17,15.17,0,0,0,2-.91,7.5,7.5,0,0,0,3.3-8.91l-17.59-52.39a6.06,6.06,0,0,0-1.66-2.6c-6-5.32-19.34,4-19.34,4-3.6,2.25-3.8,9.38-3.8,9.38V618.23a41.66,41.66,0,0,1,1.46-11.05c11.6-42.06,46.27-41.48,47.48-41.44h0c1.21,0,35.88-.62,47.48,41.44A41.66,41.66,0,0,1,178,618.23V642.3s-.2-7.13-3.8-9.38c0,0-13.35-9.35-19.34-4a6.06,6.06,0,0,0-1.66,2.6l-17.59,52.39a7.5,7.5,0,0,0,3.3,8.91,15.17,15.17,0,0,0,2,.91,82.46,82.46,0,0,0,11.7,3.23,5.47,5.47,0,0,0,6-2.92c2.06-4.14,6.49-10.26,14.85-10.68a5.31,5.31,0,0,0,4.19-2.43c2.45-3.73,6.55-12.71,9.55-33.25A9,9,0,0,0,186,641.9,9.1,9.1,0,0,1,185,637.42Z"/>
<path d="M428,794.42c0-3.91.28-13.72.4-17.67a2.47,2.47,0,0,1,.89-1.89c.77-.61,1.77-2.67,1.63-9.36-.22-10.7-16.28-55.25-58.87-55h0c-42.59-.2-58.65,44.35-58.87,55-.14,6.69.86,8.75,1.63,9.36a2.47,2.47,0,0,1,.89,1.89c.12,4,.4,13.76.4,17.67a9.1,9.1,0,0,1-1,4.48,9,9,0,0,0-1.15,5.75c3,20.54,7.1,29.52,9.55,33.25a5.31,5.31,0,0,0,4.19,2.43c8.36.42,12.79,6.54,14.85,10.68a5.47,5.47,0,0,0,6,2.92,82.46,82.46,0,0,0,11.7-3.23,15.17,15.17,0,0,0,2-.91,7.5,7.5,0,0,0,3.3-8.91l-17.59-52.39a6.06,6.06,0,0,0-1.66-2.6c-6-5.32-19.34,4-19.34,4-3.6,2.25-3.8,9.38-3.8,9.38V775.23a41.66,41.66,0,0,1,1.46-11.05c11.6-42.06,46.27-41.48,47.48-41.44h0c1.21,0,35.88-.62,47.48,41.44A41.66,41.66,0,0,1,421,775.23V799.3s-.2-7.13-3.8-9.38c0,0-13.35-9.35-19.34-4a6.06,6.06,0,0,0-1.66,2.6l-17.59,52.39a7.5,7.5,0,0,0,3.3,8.91,15.17,15.17,0,0,0,2,.91,82.46,82.46,0,0,0,11.7,3.23,5.47,5.47,0,0,0,6-2.92c2.06-4.14,6.49-10.26,14.85-10.68a5.31,5.31,0,0,0,4.19-2.43c2.45-3.73,6.55-12.71,9.55-33.25A9,9,0,0,0,429,798.9,9.1,9.1,0,0,1,428,794.42Z"/>
<path d="M867,747.42c0-3.91.28-13.72.4-17.67a2.47,2.47,0,0,1,.89-1.89c.77-.61,1.77-2.67,1.63-9.36-.22-10.7-16.28-55.25-58.87-55h0c-42.59-.2-58.65,44.35-58.87,55-.14,6.69.86,8.75,1.63,9.36a2.47,2.47,0,0,1,.89,1.89c.12,4,.4,13.76.4,17.67a9.1,9.1,0,0,1-1,4.48,9,9,0,0,0-1.15,5.75c3,20.54,7.1,29.52,9.55,33.25a5.31,5.31,0,0,0,4.19,2.43c8.36.42,12.79,6.54,14.85,10.68a5.47,5.47,0,0,0,6,2.92,82.46,82.46,0,0,0,11.7-3.23,15.17,15.17,0,0,0,2-.91,7.5,7.5,0,0,0,3.3-8.91l-17.59-52.39a6.06,6.06,0,0,0-1.66-2.6c-6-5.32-19.34,4-19.34,4-3.6,2.25-3.8,9.38-3.8,9.38V728.23a41.66,41.66,0,0,1,1.46-11.05c11.6-42.06,46.27-41.48,47.48-41.44h0c1.21,0,35.88-.62,47.48,41.44A41.66,41.66,0,0,1,860,728.23V752.3s-.2-7.13-3.8-9.38c0,0-13.35-9.35-19.34-4a6.06,6.06,0,0,0-1.66,2.6l-17.59,52.39a7.5,7.5,0,0,0,3.3,8.91,15.17,15.17,0,0,0,2,.91,82.46,82.46,0,0,0,11.7,3.23,5.47,5.47,0,0,0,6-2.92c2.06-4.14,6.49-10.26,14.85-10.68a5.31,5.31,0,0,0,4.19-2.43c2.45-3.73,6.55-12.71,9.55-33.25A9,9,0,0,0,868,751.9,9.1,9.1,0,0,1,867,747.42Z"/>
<path d="M701,938.42c0-3.91.28-13.72.4-17.67a2.47,2.47,0,0,1,.89-1.89c.77-.61,1.77-2.67,1.63-9.36-.22-10.7-16.28-55.25-58.87-55h0c-42.59-.2-58.65,44.35-58.87,55-.14,6.69.86,8.75,1.63,9.36a2.47,2.47,0,0,1,.89,1.89c.12,4,.4,13.76.4,17.67a9.1,9.1,0,0,1-1,4.48,9,9,0,0,0-1.15,5.75c3,20.54,7.1,29.52,9.55,33.25a5.31,5.31,0,0,0,4.19,2.43c8.36.42,12.79,6.54,14.85,10.68a5.47,5.47,0,0,0,6,2.92,82.46,82.46,0,0,0,11.7-3.23,15.17,15.17,0,0,0,2-.91,7.5,7.5,0,0,0,3.3-8.91l-17.59-52.39a6.06,6.06,0,0,0-1.66-2.6c-6-5.32-19.34,4-19.34,4-3.6,2.25-3.8,9.38-3.8,9.38V919.23a41.66,41.66,0,0,1,1.46-11.05c11.6-42.06,46.27-41.48,47.48-41.44h0c1.21,0,35.88-.62,47.48,41.44A41.66,41.66,0,0,1,694,919.23V943.3s-.2-7.13-3.8-9.38c0,0-13.35-9.35-19.34-4a6.06,6.06,0,0,0-1.66,2.6l-17.59,52.39a7.5,7.5,0,0,0,3.3,8.91,15.17,15.17,0,0,0,2,.91,82.46,82.46,0,0,0,11.7,3.23,5.47,5.47,0,0,0,6-2.92c2.06-4.14,6.49-10.26,14.85-10.68a5.31,5.31,0,0,0,4.19-2.43c2.45-3.73,6.55-12.71,9.55-33.25A9,9,0,0,0,702,942.9,9.1,9.1,0,0,1,701,938.42Z"/>
<path d="M200,938.42c0-3.91.28-13.72.4-17.67a2.47,2.47,0,0,1,.89-1.89c.77-.61,1.77-2.67,1.63-9.36-.22-10.7-16.28-55.25-58.87-55h0c-42.59-.2-58.65,44.35-58.87,55-.14,6.69.86,8.75,1.63,9.36a2.47,2.47,0,0,1,.89,1.89c.12,4,.4,13.76.4,17.67a9.1,9.1,0,0,1-1,4.48,9,9,0,0,0-1.15,5.75c3,20.54,7.1,29.52,9.55,33.25a5.31,5.31,0,0,0,4.19,2.43c8.36.42,12.79,6.54,14.85,10.68a5.47,5.47,0,0,0,6,2.92,82.46,82.46,0,0,0,11.7-3.23,15.17,15.17,0,0,0,2-.91,7.5,7.5,0,0,0,3.3-8.91l-17.59-52.39a6.06,6.06,0,0,0-1.66-2.6c-6-5.32-19.34,4-19.34,4-3.6,2.25-3.8,9.38-3.8,9.38V919.23a41.66,41.66,0,0,1,1.46-11.05c11.6-42.06,46.27-41.48,47.48-41.44h0c1.21,0,35.88-.62,47.48,41.44A41.66,41.66,0,0,1,193,919.23V943.3s-.2-7.13-3.8-9.38c0,0-13.35-9.35-19.34-4a6.06,6.06,0,0,0-1.66,2.6l-17.59,52.39a7.5,7.5,0,0,0,3.3,8.91,15.17,15.17,0,0,0,2,.91,82.46,82.46,0,0,0,11.7,3.23,5.47,5.47,0,0,0,6-2.92c2.06-4.14,6.49-10.26,14.85-10.68a5.31,5.31,0,0,0,4.19-2.43c2.45-3.73,6.55-12.71,9.55-33.25A9,9,0,0,0,201,942.9,9.1,9.1,0,0,1,200,938.42Z"/>
</g>
</g>
</svg>