<svg xmlns="http://www.w3.org/2000/svg" viewBox="0 0 478 478">
<defs>
<style>
.cls-1{fill:#3ab231;}
.cls-2{fill:#00e8f7;}
.cls-3{fill:#ea6c2f;}
.cls-4{fill:#a6b0b7;}
.cls-5{fill:#7756c4;}
.cls-6{fill:#deb116;}
.cls-7{fill:#0294b4;}
.cls-8{fill:#d5e13a;}
.cls-11,.cls-12,.cls-9{stroke:#fff;stroke-miterlimit:10;}
.cls-10,.cls-12{fill:#fff;}
.cls-11{fill:#07080c;}
</style>
</defs>

<defs>
<style>

     .cls-1{
          -webkit-animation: colorChange1 2s linear infinite;
     }

     @-webkit-keyframes colorChange1{
		0%{
			fill: #3AB231;
		}
          25%{
			fill: #EA6C2F;
		}
          50%{
			fill: #00E8F7;
		}
          75%{
               fill: #D5E13A;
          }
          100%{
               fill: #3AB231;
          }
	}

     .cls-2{
          -webkit-animation: colorChange2 3s linear infinite;
     }

     @-webkit-keyframes colorChange2{
		0%{
			fill: #00E8F7;
		}
          25%{
			fill: #00E8F7;
		}
          50%{
			fill: #A6B0B7;
		}
          75%{
               fill: #DEB116;
          }
          100%{
               fill: #00E8F7;
          }
	}

     .cls-3{
          -webkit-animation: colorChange3 4s linear infinite;
     }

     @-webkit-keyframes colorChange3{
		0%{
			fill: #EA6C2F;
		}
          25%{
			fill: #0294B4;
		}
          50%{
			fill: #DEB116;
		}
          75%{
               fill: #D5E13A;
          }
          100%{
               fill: #EA6C2F;
          }
	}

     .cls-4{
          -webkit-animation: colorChange4 5s linear infinite;
     }

     @-webkit-keyframes colorChange4{
		0%{
			fill: #A6B0B7;
		}
          25%{
			fill: #3AB231;
		}
          50%{
			fill: #0294B4;
		}
          75%{
               fill: #00E8F7;
          }
          100%{
               fill: #A6B0B7;
          }
	}

     .cls-5{
          -webkit-animation: colorChange5 4s linear infinite;
     }

     @-webkit-keyframes colorChange5{
		0%{
			fill: #7756C4;
		}
          25%{
			fill: #D5E13A;
		}
          50%{
			fill: #EA6C2F;
		}
          75%{
               fill: #3AB231;
          }
          100%{
               fill: #7756C4;
          }
	}

     .cls-6{
          -webkit-animation: colorChange6 3s linear infinite;
     }

     @-webkit-keyframes colorChange6{
		0%{
			fill: #DEB116;
		}
          25%{
			fill: #A6B0B7;
		}
          50%{
			fill: #00E8F7;
		}
          75%{
               fill: #7756C4;
          }
          100%{
               fill: #DEB116;
          }
	}

     .cls-7{
          -webkit-animation: colorChange7 2s linear infinite;
     }

     @-webkit-keyframes colorChange7{
		0%{
			fill: #0294B4;
		}
          25%{
			fill: #EA6C2F;
		}
          50%{
			fill: #3AB231;
		}
          75%{
               fill: #D5E13A;
          }
          100%{
               fill: #0294B4;
          }
	}

     .cls-8{
          -webkit-animation: colorChange8 5s linear infinite;
     }

     @-webkit-keyframes colorChange8{
		0%{
			fill: #D5E13A;
		}
          25%{
			fill: #7756C4;
		}
          50%{
			fill: #A6B0B7;
		}
          75%{
               fill: #3AB231;
          }
          100%{
               fill: #D5E13A;
          }
	}

</style>
</defs>

<g id="Laag_2" data-name="Laag 2">
<g id="Laag_1-2" data-name="Laag 1">
<rect width="478" height="478" rx="3.5"/>
<g id="greenGroup">
<rect class="cls-1" x="267" y="74" width="41" height="41" rx="2.49"/>
<rect class="cls-1" x="170" y="122" width="41" height="41" rx="2.49"/>
<rect class="cls-1" x="267" y="170" width="41" height="41" rx="2.49"/>
<rect class="cls-1" x="267" y="218" width="41" height="41" rx="2.49"/>
<rect class="cls-1" x="170" y="314.93" width="41" height="41" rx="2.49"/>
<rect class="cls-1" x="315" y="314.93" width="41" height="41" rx="2.49"/>
<rect class="cls-1" x="26" y="363" width="41" height="41" rx="2.49"/>
<rect class="cls-1" x="26" y="411" width="41" height="41" rx="2.49"/>
</g>
<g id="lightBlueGroup">
<rect class="cls-2" x="362" y="74" width="41" height="41" rx="2.49"/>
<rect class="cls-2" x="122" y="122" width="41" height="41" rx="2.49"/>
<rect class="cls-2" x="170" y="170" width="41" height="41" rx="2.49"/>
<rect class="cls-2" x="170" y="218" width="41" height="41" rx="2.49"/>
<rect class="cls-2" x="362" y="266" width="41" height="41" rx="2.49"/>
<rect class="cls-2" x="122" y="314.93" width="41" height="41" rx="2.49"/>
<rect class="cls-2" x="74" y="363" width="41" height="41" rx="2.49"/>
<rect class="cls-2" x="74" y="411" width="41" height="41" rx="2.49"/>
</g>
<g id="redGroup">
<rect class="cls-3" x="74" y="74" width="41" height="41" rx="2.49"/>
<rect class="cls-3" x="74" y="122" width="41" height="41" rx="2.49"/>
<rect class="cls-3" x="74" y="170" width="41" height="41" rx="2.49"/>
<rect class="cls-3" x="74" y="218" width="41" height="41" rx="2.49"/>
<rect class="cls-3" x="267" y="266" width="41" height="41" rx="2.49"/>
<rect class="cls-3" x="267" y="314.93" width="41" height="41" rx="2.49"/>
<rect class="cls-3" x="122" y="363" width="41" height="41" rx="2.49"/>
<rect class="cls-3" x="122" y="411" width="41" height="41" rx="2.49"/>
</g>
<g id="purpleGroup">
<rect class="cls-4" x="315" y="74" width="41" height="41" rx="2.49"/>
<rect class="cls-4" x="218" y="122" width="41" height="41" rx="2.49"/>
<rect class="cls-4" x="315" y="170" width="41" height="41" rx="2.49"/>
<rect class="cls-4" x="315" y="218" width="41" height="41" rx="2.49"/>
<rect class="cls-4" x="218" y="266" width="41" height="41" rx="2.49"/>
<rect class="cls-4" x="315" y="266" width="41" height="41" rx="2.49"/>
<rect class="cls-4" x="218" y="314.93" width="41" height="41" rx="2.49"/>
<rect class="cls-4" x="170" y="363" width="41" height="41" rx="2.49"/>
<rect class="cls-4" x="170" y="411" width="41" height="41" rx="2.49"/>
</g>
<rect class="cls-5" x="170" y="74" width="41" height="41" rx="2.49"/>
<rect class="cls-5" x="315" y="122" width="41" height="41" rx="2.49"/>
<rect class="cls-5" x="362" y="170" width="41" height="41" rx="2.49"/>
<rect class="cls-5" x="362" y="218" width="41" height="41" rx="2.49"/>
<rect class="cls-5" x="170" y="266" width="41" height="41" rx="2.49"/>
<rect class="cls-5" x="218" y="363" width="41" height="41" rx="2.49"/>
<rect class="cls-5" x="218" y="411" width="41" height="41" rx="2.49"/>
<g id="orangeGroup">
<rect class="cls-6" x="218" y="74" width="41" height="41" rx="2.49"/>
<rect class="cls-6" x="26" y="122" width="41" height="41" rx="2.49"/>
<rect class="cls-6" x="218" y="170" width="41" height="41" rx="2.49"/>
<rect class="cls-6" x="218" y="218" width="41" height="41" rx="2.49"/>
<rect class="cls-6" x="74" y="314.93" width="41" height="41" rx="2.49"/>
<rect class="cls-6" x="267" y="363" width="41" height="41" rx="2.49"/>
<rect class="cls-6" x="267" y="411" width="41" height="41" rx="2.49"/>
</g>
<g id="blueGroup">
<rect class="cls-7" x="26" y="74" width="41" height="41" rx="2.49"/>
<rect class="cls-7" x="267" y="122" width="41" height="41" rx="2.49"/>
<rect class="cls-7" x="26" y="170" width="41" height="41" rx="2.49"/>
<rect class="cls-7" x="26" y="218" width="41" height="41" rx="2.49"/>
<rect class="cls-7" x="362" y="314.93" width="41" height="41" rx="2.49"/>
<rect class="cls-7" x="315" y="363" width="41" height="41" rx="2.49"/>
<rect class="cls-7" x="315" y="411" width="41" height="41" rx="2.49"/>
</g>
<g id="yellowGroup">
<rect class="cls-8" x="122" y="74" width="41" height="41" rx="2.49"/>
<rect class="cls-8" x="362" y="122" width="41" height="41" rx="2.49"/>
<rect class="cls-8" x="122" y="170" width="41" height="41" rx="2.49"/>
<rect class="cls-8" x="122" y="218" width="41" height="41" rx="2.49"/>
<rect class="cls-8" x="26" y="266" width="41" height="41" rx="2.49"/>
<rect class="cls-8" x="74" y="266" width="41" height="41" rx="2.49"/>
<rect class="cls-8" x="122" y="266" width="41" height="41" rx="2.49"/>
<rect class="cls-8" x="26" y="314.93" width="41" height="41" rx="2.49"/>
<rect class="cls-8" x="362" y="363" width="41" height="41" rx="2.49"/>
<rect class="cls-8" x="362" y="411" width="41" height="41" rx="2.49"/>
</g>
<rect class="cls-9" x="409.67" y="411.17" width="41" height="41" rx="2.49"/><path class="cls-10" d="M425.79,424.15a1.46,1.46,0,0,1-.63,1.22,2.92,2.92,0,0,1-1.74.47,5.11,5.11,0,0,1-1.1-.11,6,6,0,0,1-.88-.29v-1.22h.14a2.94,2.94,0,0,0,.92.5,2.86,2.86,0,0,0,1,.18l.31,0a1.73,1.73,0,0,0,.32-.07.87.87,0,0,0,.25-.15.41.41,0,0,0,.09-.28.35.35,0,0,0-.14-.29.92.92,0,0,0-.41-.18l-.61-.13a5.26,5.26,0,0,1-.6-.15,1.9,1.9,0,0,1-.93-.57,1.43,1.43,0,0,1-.28-.89,1.38,1.38,0,0,1,.64-1.16,2.79,2.79,0,0,1,1.64-.45,5.45,5.45,0,0,1,1,.1,4.82,4.82,0,0,1,.85.25v1.17h-.14a2.43,2.43,0,0,0-.75-.41,2.62,2.62,0,0,0-.91-.17l-.33,0a1.58,1.58,0,0,0-.31.09.51.51,0,0,0-.23.15.33.33,0,0,0-.1.24.35.35,0,0,0,.16.31,1.53,1.53,0,0,0,.58.19l.54.12a3.53,3.53,0,0,1,.55.15,1.83,1.83,0,0,1,.86.52A1.25,1.25,0,0,1,425.79,424.15Z"/><path class="cls-10" d="M429.08,425.71a2.61,2.61,0,0,1-.42.08,4.22,4.22,0,0,1-.55,0,1.66,1.66,0,0,1-1.06-.29,1.21,1.21,0,0,1-.35-1v-1.8h-.51v-.83h.51v-1.1h1.23v1.1h1.15v.83h-1.15v1.72a.76.76,0,0,0,.06.27.39.39,0,0,0,.17.19.77.77,0,0,0,.35.07l.25,0,.22-.08h.1Z"/><path class="cls-10" d="M433.74,423.83a2,2,0,0,1-.55,1.49,2.51,2.51,0,0,1-3.11,0,2,2,0,0,1-.55-1.49,2,2,0,0,1,.56-1.5,2.11,2.11,0,0,1,1.54-.54,2.14,2.14,0,0,1,1.56.54A2.06,2.06,0,0,1,433.74,423.83Zm-1.52.93a1.06,1.06,0,0,0,.18-.35,2.19,2.19,0,0,0,.06-.58,2.23,2.23,0,0,0-.06-.56,1,1,0,0,0-.17-.37.63.63,0,0,0-.26-.2,1,1,0,0,0-.34-.05,1,1,0,0,0-.31,0,.75.75,0,0,0-.27.19,1,1,0,0,0-.17.37,2,2,0,0,0-.07.58,2.2,2.2,0,0,0,.06.55.91.91,0,0,0,.17.37.73.73,0,0,0,.26.2,1,1,0,0,0,.35.06A.81.81,0,0,0,432,425,.55.55,0,0,0,432.22,424.76Z"/><path class="cls-10" d="M438.62,423.77a2.41,2.41,0,0,1-.14.87,1.91,1.91,0,0,1-.38.64,1.56,1.56,0,0,1-.56.4,1.63,1.63,0,0,1-.66.14,1.82,1.82,0,0,1-.56-.07,2.65,2.65,0,0,1-.47-.2v1.6h-1.23v-5.24h1.23v.4a2.83,2.83,0,0,1,.58-.37,1.65,1.65,0,0,1,.68-.14,1.34,1.34,0,0,1,1.12.53A2.37,2.37,0,0,1,438.62,423.77Zm-1.26,0a1.4,1.4,0,0,0-.19-.81.72.72,0,0,0-.61-.26,1.23,1.23,0,0,0-.36.06,1.19,1.19,0,0,0-.35.15v1.93a1.07,1.07,0,0,0,.27.06h.27a.89.89,0,0,0,.73-.28A1.32,1.32,0,0,0,437.36,423.8Z"/><path class="cls-10" d="M426.24,432.55a1.47,1.47,0,0,1-.64,1.22,2.89,2.89,0,0,1-1.73.47,5.21,5.21,0,0,1-1.11-.11,6,6,0,0,1-.88-.29v-1.22H422a2.79,2.79,0,0,0,.91.5,2.86,2.86,0,0,0,1,.18l.31,0a1.73,1.73,0,0,0,.32-.07.87.87,0,0,0,.25-.15.41.41,0,0,0,.09-.28.35.35,0,0,0-.14-.29.92.92,0,0,0-.41-.18l-.61-.13a5.26,5.26,0,0,1-.6-.15,1.82,1.82,0,0,1-.92-.57,1.45,1.45,0,0,1,.35-2,2.79,2.79,0,0,1,1.64-.45,5.36,5.36,0,0,1,1,.1,4.82,4.82,0,0,1,.85.25v1.17h-.14a2.43,2.43,0,0,0-.75-.41,2.62,2.62,0,0,0-.91-.17l-.33,0a1.58,1.58,0,0,0-.31.09.51.51,0,0,0-.23.15.36.36,0,0,0-.09.24.36.36,0,0,0,.15.31,1.69,1.69,0,0,0,.58.2l.54.11a3.25,3.25,0,0,1,.55.15,1.92,1.92,0,0,1,.87.52A1.33,1.33,0,0,1,426.24,432.55Z"/><path class="cls-10" d="M431,432.23a2,2,0,0,1-.55,1.49,2.49,2.49,0,0,1-3.1,0,2.31,2.31,0,0,1,0-3,2.13,2.13,0,0,1,1.55-.54,2.1,2.1,0,0,1,1.55.54A2,2,0,0,1,431,432.23Zm-1.52.93a1,1,0,0,0,.18-.35,2.16,2.16,0,0,0,.06-.57,2.26,2.26,0,0,0-.06-.57,1,1,0,0,0-.17-.37.63.63,0,0,0-.26-.2.88.88,0,0,0-.33-.05,1,1,0,0,0-.32,0,.64.64,0,0,0-.26.19.91.91,0,0,0-.18.37,2,2,0,0,0-.07.59,2.17,2.17,0,0,0,.06.54.91.91,0,0,0,.17.37.73.73,0,0,0,.26.2,1,1,0,0,0,.35.06.87.87,0,0,0,.32-.06A.58.58,0,0,0,429.47,433.16Z"/><path class="cls-10" d="M433.1,434.15h-1.23v-5.32h1.23Z"/><path class="cls-10" d="M438.19,432.23a2,2,0,0,1-.55,1.49,2.14,2.14,0,0,1-1.56.54,2.09,2.09,0,0,1-1.54-.54,2.28,2.28,0,0,1,0-3,2.11,2.11,0,0,1,1.54-.54,2.14,2.14,0,0,1,1.56.54A2.06,2.06,0,0,1,438.19,432.23Zm-1.52.93a1,1,0,0,0,.18-.35,2.16,2.16,0,0,0,.06-.57,2.26,2.26,0,0,0-.06-.57,1,1,0,0,0-.17-.37.63.63,0,0,0-.26-.2,1,1,0,0,0-.34-.05,1,1,0,0,0-.31,0,.75.75,0,0,0-.27.19,1.06,1.06,0,0,0-.17.37,2,2,0,0,0-.07.59,2.17,2.17,0,0,0,.06.54.91.91,0,0,0,.17.37.73.73,0,0,0,.26.2,1,1,0,0,0,.35.06.91.91,0,0,0,.32-.06A.58.58,0,0,0,436.67,433.16Z"/><path class="cls-10" d="M426.25,442.54H425v-3.4l-.94,2.21h-.91l-.94-2.21v3.4h-1.24v-5.08h1.52l1.15,2.55,1.14-2.55h1.52Z"/><path class="cls-10" d="M431.31,442.54h-1.23v-.42a4,4,0,0,1-.63.4,1.54,1.54,0,0,1-.67.13,1.28,1.28,0,0,1-1-.36,1.54,1.54,0,0,1-.34-1.08v-2.5h1.23v1.9a3.4,3.4,0,0,0,0,.48.88.88,0,0,0,.08.32.41.41,0,0,0,.2.19.92.92,0,0,0,.37.06,1.22,1.22,0,0,0,.35-.06,2,2,0,0,0,.37-.17v-2.72h1.23Z"/><path class="cls-10" d="M434.93,442.51l-.42.08a4.22,4.22,0,0,1-.55,0,1.69,1.69,0,0,1-1.07-.29,1.25,1.25,0,0,1-.35-1v-1.79H432v-.83h.5v-1.1h1.24v1.1h1.15v.83h-1.15v1.72a.76.76,0,0,0,.05.27.44.44,0,0,0,.17.19.82.82,0,0,0,.36.07l.25,0,.21-.08h.11Z"/><path class="cls-10" d="M439.44,440.85h-2.82a.9.9,0,0,0,.35.69,1.52,1.52,0,0,0,.93.24,2,2,0,0,0,.76-.14,2.15,2.15,0,0,0,.57-.3h.14v1a4.67,4.67,0,0,1-.79.24,4,4,0,0,1-.81.08,2.71,2.71,0,0,1-1.77-.52,1.84,1.84,0,0,1-.62-1.48,2,2,0,0,1,.58-1.51,2.22,2.22,0,0,1,1.6-.55,1.92,1.92,0,0,1,1.41.47,1.87,1.87,0,0,1,.47,1.36Zm-1.22-.72a.87.87,0,0,0-.19-.58.74.74,0,0,0-.57-.19.91.91,0,0,0-.58.18.8.8,0,0,0-.26.59Z"/><rect class="cls-9" x="409.67" y="363.17" width="41" height="41" rx="2.49"/><path class="cls-10" d="M435.34,385.19l-8.48,4.19v-2.17l5.94-2.88-5.94-2.87V379.3l8.48,4.18Z"/><rect class="cls-9" x="410.5" y="314.5" width="41" height="41" rx="2.49"/><path class="cls-10" d="M436.17,336.52l-8.48,4.19v-2.17l5.94-2.87-5.94-2.88v-2.16l8.48,4.18Z"/><rect class="cls-9" x="410.5" y="266.5" width="41" height="41" rx="2.49"/><path class="cls-10" d="M436.17,288.52l-8.48,4.19v-2.17l5.94-2.87-5.94-2.88v-2.16l8.48,4.18Z"/><rect class="cls-9" x="410.5" y="218.5" width="41" height="41" rx="2.49"/><path class="cls-10" d="M436.17,240.52l-8.48,4.19v-2.17l5.94-2.87-5.94-2.88v-2.16l8.48,4.18Z"/><rect class="cls-9" x="410.5" y="170.5" width="41" height="41" rx="2.49"/><path class="cls-10" d="M436.17,192.52l-8.48,4.19v-2.17l5.94-2.87-5.94-2.88v-2.16l8.48,4.18Z"/><rect class="cls-9" x="410.5" y="122.5" width="41" height="41" rx="2.49"/><path class="cls-10" d="M436.17,144.52l-8.48,4.19v-2.17l5.94-2.87-5.94-2.88v-2.16l8.48,4.18Z"/><rect class="cls-9" x="410.5" y="74.5" width="41" height="41" rx="2.49"/><path class="cls-10" d="M436.17,96.52l-8.48,4.19V98.54l5.94-2.87-5.94-2.88V90.63l8.48,4.18Z"/><rect class="cls-11" x="362" y="26" width="41" height="41" rx="2.49"/><path class="cls-10" d="M378.29,46.82a1.8,1.8,0,0,1-.57,1.44,3.11,3.11,0,0,1-3.38,0,1.8,1.8,0,0,1-.57-1.44V43.57h1.31v3.18a1.15,1.15,0,0,0,.23.78.88.88,0,0,0,.72.26.91.91,0,0,0,.72-.25,1.15,1.15,0,0,0,.23-.79V43.57h1.31Z"/><path class="cls-10" d="M382.79,47.44a1.12,1.12,0,0,1-.53,1,2.61,2.61,0,0,1-1.46.36,4.31,4.31,0,0,1-.93-.09,3.14,3.14,0,0,1-.67-.21v-1h.11l.21.14a2.43,2.43,0,0,0,.35.16,2.23,2.23,0,0,0,.95.19,1.28,1.28,0,0,0,.54-.08.25.25,0,0,0,.17-.23.23.23,0,0,0-.1-.21,1.51,1.51,0,0,0-.39-.12l-.37-.06-.43-.09a1.43,1.43,0,0,1-.77-.43,1,1,0,0,1-.26-.72,1.1,1.1,0,0,1,.53-.92,2.5,2.5,0,0,1,1.43-.37,3.77,3.77,0,0,1,.83.09,3,3,0,0,1,.61.19v1h-.1a2.31,2.31,0,0,0-.63-.31,2.09,2.09,0,0,0-.7-.11,1.3,1.3,0,0,0-.51.08c-.13.05-.2.13-.2.23a.26.26,0,0,0,.09.21,1.39,1.39,0,0,0,.44.14l.4.08a3.43,3.43,0,0,1,.44.09,1.38,1.38,0,0,1,.72.39A1.05,1.05,0,0,1,382.79,47.44Z"/><path class="cls-10" d="M387.39,47h-2.82a.89.89,0,0,0,.34.69,1.52,1.52,0,0,0,.93.24,2.18,2.18,0,0,0,.76-.14,3.07,3.07,0,0,0,.58-.3h.13v1a3.89,3.89,0,0,1-.78.25,4.18,4.18,0,0,1-.82.07,2.65,2.65,0,0,1-1.77-.52,1.82,1.82,0,0,1-.61-1.48,2,2,0,0,1,.58-1.5,2.23,2.23,0,0,1,1.6-.56,1.91,1.91,0,0,1,1.4.47,1.84,1.84,0,0,1,.48,1.37Zm-1.23-.72a.81.81,0,0,0-.19-.58.73.73,0,0,0-.56-.2.89.89,0,0,0-.59.19.74.74,0,0,0-.25.59Z"/><path class="cls-10" d="M391,46h-.11a1.08,1.08,0,0,0-.25,0h-.29a3.28,3.28,0,0,0-.47,0,2.82,2.82,0,0,0-.43.12v2.57h-1.24V44.82h1.24v.56a2.66,2.66,0,0,1,.7-.46,1.73,1.73,0,0,1,.56-.11H391Z"/><rect class="cls-11" x="315" y="26" width="41" height="41" rx="2.49"/><path class="cls-10" d="M331.53,48.66h-1.61l-1.52-2-.3.38v1.66h-1.32V43.57h1.32v2.31l1.81-2.31h1.52l-2,2.35Z"/><path class="cls-10" d="M335.89,47h-2.81a.86.86,0,0,0,.34.69,1.52,1.52,0,0,0,.93.24,2.22,2.22,0,0,0,.76-.14,3,3,0,0,0,.57-.3h.14v1a3.73,3.73,0,0,1-1.6.32,2.65,2.65,0,0,1-1.77-.52,1.82,1.82,0,0,1-.62-1.48,2,2,0,0,1,.58-1.5,2.23,2.23,0,0,1,1.6-.56,1.92,1.92,0,0,1,1.41.47,1.88,1.88,0,0,1,.47,1.37Zm-1.22-.72a.85.85,0,0,0-.19-.58.74.74,0,0,0-.57-.2.86.86,0,0,0-.58.19.78.78,0,0,0-.26.59Z"/><path class="cls-10" d="M338.49,47.3l.88-2.48h1.26l-2.13,5.25h-1.34l.61-1.44-1.49-3.81h1.29Z"/><path class="cls-10" d="M344.65,47.44a1.12,1.12,0,0,1-.53,1,2.58,2.58,0,0,1-1.46.36,4.45,4.45,0,0,1-.93-.09,3.14,3.14,0,0,1-.67-.21v-1h.11l.22.14a2.23,2.23,0,0,0,.34.16,2.41,2.41,0,0,0,.43.14,2.24,2.24,0,0,0,.52,0,1.28,1.28,0,0,0,.54-.08.24.24,0,0,0,.17-.23.23.23,0,0,0-.1-.21,1.51,1.51,0,0,0-.39-.12l-.37-.06-.42-.09a1.47,1.47,0,0,1-.78-.43,1,1,0,0,1-.25-.72,1.09,1.09,0,0,1,.52-.92,2.51,2.51,0,0,1,1.44-.37,3.68,3.68,0,0,1,.82.09,3.32,3.32,0,0,1,.62.19v1h-.11a2.4,2.4,0,0,0-.62-.31,2.19,2.19,0,0,0-.71-.11,1.22,1.22,0,0,0-.5.08c-.14.05-.21.13-.21.23a.27.27,0,0,0,.1.21,1.21,1.21,0,0,0,.43.14l.41.08a3.29,3.29,0,0,1,.43.09,1.34,1.34,0,0,1,.72.39A1.05,1.05,0,0,1,344.65,47.44Z"/><rect class="cls-11" x="267" y="26" width="41" height="41" rx="2.49"/><path class="cls-10" d="M279.56,46.12a2.55,2.55,0,0,1-.32,1.27,2.38,2.38,0,0,1-.82.87,2.53,2.53,0,0,1-.82.31,5.41,5.41,0,0,1-1.05.09h-1.8V43.57h1.85a4.81,4.81,0,0,1,1.07.1,2.41,2.41,0,0,1,.76.3,2.24,2.24,0,0,1,.83.87A2.6,2.6,0,0,1,279.56,46.12Zm-1.35,0a1.88,1.88,0,0,0-.19-.86,1.26,1.26,0,0,0-.58-.56,1.23,1.23,0,0,0-.41-.13,3.34,3.34,0,0,0-.63,0h-.33v3.19h.33a3.54,3.54,0,0,0,.68-.05,1.69,1.69,0,0,0,.43-.15A1.27,1.27,0,0,0,278,47,2,2,0,0,0,278.21,46.11Z"/><path class="cls-10" d="M283.28,46h-.11a1.08,1.08,0,0,0-.25,0h-.29a3.28,3.28,0,0,0-.47,0,2.82,2.82,0,0,0-.43.12v2.57H280.5V44.82h1.23v.56a2.54,2.54,0,0,1,.71-.46,1.63,1.63,0,0,1,.55-.11h.29Z"/><path class="cls-10" d="M287.8,48.66h-1.23v-.42a3.88,3.88,0,0,1-.63.39,1.56,1.56,0,0,1-.68.13,1.28,1.28,0,0,1-1-.36,1.51,1.51,0,0,1-.35-1.08v-2.5h1.24v1.9a3.48,3.48,0,0,0,0,.49.94.94,0,0,0,.08.32.44.44,0,0,0,.2.18.92.92,0,0,0,.37.06,1.22,1.22,0,0,0,.35-.06,1.53,1.53,0,0,0,.37-.17V44.82h1.23Z"/><path class="cls-10" d="M292.71,45.94v2.72h-1.23V46.74c0-.19,0-.34,0-.48a.84.84,0,0,0-.07-.31.31.31,0,0,0-.19-.18.82.82,0,0,0-.35-.06.84.84,0,0,0-.35.07,2.25,2.25,0,0,0-.31.16v2.72H289V44.82h1.23v.43a3.73,3.73,0,0,1,.61-.4,1.5,1.5,0,0,1,.64-.14,1.33,1.33,0,0,1,.67.17,1.15,1.15,0,0,1,.45.5,4,4,0,0,1,.72-.49,1.47,1.47,0,0,1,.68-.18,1.19,1.19,0,0,1,1,.38,1.61,1.61,0,0,1,.32,1.07v2.5H294V46.74c0-.19,0-.35,0-.48a.68.68,0,0,0-.07-.31.32.32,0,0,0-.18-.18.9.9,0,0,0-.36-.06,1,1,0,0,0-.3,0Z"/><path class="cls-10" d="M299.7,47.44a1.09,1.09,0,0,1-.53,1,2.56,2.56,0,0,1-1.46.36,4.45,4.45,0,0,1-.93-.09,3.14,3.14,0,0,1-.67-.21v-1h.11l.22.14a2.23,2.23,0,0,0,.34.16,2.28,2.28,0,0,0,.44.14,2.14,2.14,0,0,0,.52,0,1.2,1.2,0,0,0,.53-.08.25.25,0,0,0,.18-.23.24.24,0,0,0-.11-.21,1.28,1.28,0,0,0-.39-.12l-.37-.06-.42-.09a1.47,1.47,0,0,1-.78-.43,1,1,0,0,1-.25-.72,1.09,1.09,0,0,1,.52-.92,2.51,2.51,0,0,1,1.44-.37,3.68,3.68,0,0,1,.82.09,3.09,3.09,0,0,1,.62.19v1h-.11a2.4,2.4,0,0,0-.62-.31,2.15,2.15,0,0,0-.71-.11,1.25,1.25,0,0,0-.5.08c-.14.05-.2.13-.2.23a.26.26,0,0,0,.09.21,1.3,1.3,0,0,0,.43.14l.41.08a3.29,3.29,0,0,1,.43.09,1.31,1.31,0,0,1,.72.39A1,1,0,0,1,299.7,47.44Z"/><rect class="cls-11" x="218" y="26" width="41" height="41" rx="2.49"/><path class="cls-10" d="M228.09,47.06a1.45,1.45,0,0,1-.63,1.22,2.92,2.92,0,0,1-1.74.47,5.11,5.11,0,0,1-1.1-.11,6,6,0,0,1-.88-.28V47.14h.15a3.21,3.21,0,0,0,.91.5,3.1,3.1,0,0,0,1,.17l.31,0a1.18,1.18,0,0,0,.32-.07.87.87,0,0,0,.25-.15.37.37,0,0,0,.09-.27.34.34,0,0,0-.14-.29.92.92,0,0,0-.41-.19l-.61-.13a5.26,5.26,0,0,1-.6-.15,1.9,1.9,0,0,1-.93-.57,1.4,1.4,0,0,1-.28-.88,1.35,1.35,0,0,1,.64-1.16,2.77,2.77,0,0,1,1.64-.45,4.75,4.75,0,0,1,1,.1,4.13,4.13,0,0,1,.85.24V45h-.14a2.81,2.81,0,0,0-.75-.41,2.62,2.62,0,0,0-.91-.17l-.33,0a1.09,1.09,0,0,0-.31.08.53.53,0,0,0-.23.16.3.3,0,0,0-.1.23.34.34,0,0,0,.16.31,1.69,1.69,0,0,0,.58.2l.54.11.55.15a1.83,1.83,0,0,1,.86.52A1.27,1.27,0,0,1,228.09,47.06Z"/><path class="cls-10" d="M232.7,47h-2.81a.89.89,0,0,0,.34.69,1.52,1.52,0,0,0,.93.24,2.22,2.22,0,0,0,.76-.14,3.42,3.42,0,0,0,.58-.3h.13v1a4.11,4.11,0,0,1-.78.25,4.18,4.18,0,0,1-.82.07,2.65,2.65,0,0,1-1.77-.52,1.82,1.82,0,0,1-.62-1.48,2,2,0,0,1,.59-1.5,2.2,2.2,0,0,1,1.59-.56,1.92,1.92,0,0,1,1.41.47,1.84,1.84,0,0,1,.47,1.37Zm-1.22-.72a.85.85,0,0,0-.19-.58.74.74,0,0,0-.57-.2.86.86,0,0,0-.58.19.78.78,0,0,0-.26.59Z"/><path class="cls-10" d="M236.91,47.44a1.1,1.1,0,0,1-.54,1,2.55,2.55,0,0,1-1.45.36,4.31,4.31,0,0,1-.93-.09,3,3,0,0,1-.67-.21v-1h.11l.21.14a2.43,2.43,0,0,0,.35.16,2.17,2.17,0,0,0,.43.14,2.14,2.14,0,0,0,.52,0,1.28,1.28,0,0,0,.54-.08.25.25,0,0,0,.17-.23.23.23,0,0,0-.1-.21,1.51,1.51,0,0,0-.39-.12l-.37-.06-.43-.09a1.4,1.4,0,0,1-.77-.43,1,1,0,0,1-.26-.72,1.1,1.1,0,0,1,.53-.92,2.5,2.5,0,0,1,1.43-.37,3.77,3.77,0,0,1,.83.09,3,3,0,0,1,.61.19v1h-.1a2.31,2.31,0,0,0-.63-.31,2.15,2.15,0,0,0-.71-.11,1.28,1.28,0,0,0-.5.08c-.13.05-.2.13-.2.23a.26.26,0,0,0,.09.21,1.29,1.29,0,0,0,.44.14l.4.08a3.43,3.43,0,0,1,.44.09,1.38,1.38,0,0,1,.72.39A1.05,1.05,0,0,1,236.91,47.44Z"/><path class="cls-10" d="M241.06,47.44a1.12,1.12,0,0,1-.53,1,2.58,2.58,0,0,1-1.46.36,4.45,4.45,0,0,1-.93-.09,3.14,3.14,0,0,1-.67-.21v-1h.11l.21.14.35.16a2.41,2.41,0,0,0,.43.14,2.19,2.19,0,0,0,.52,0,1.28,1.28,0,0,0,.54-.08.25.25,0,0,0,.17-.23.23.23,0,0,0-.1-.21,1.51,1.51,0,0,0-.39-.12l-.37-.06-.43-.09a1.47,1.47,0,0,1-.77-.43,1,1,0,0,1-.25-.72,1.09,1.09,0,0,1,.52-.92,2.5,2.5,0,0,1,1.43-.37,3.7,3.7,0,0,1,.83.09,3.32,3.32,0,0,1,.62.19v1h-.11a2.4,2.4,0,0,0-.62-.31,2.19,2.19,0,0,0-.71-.11,1.22,1.22,0,0,0-.5.08c-.14.05-.21.13-.21.23a.24.24,0,0,0,.1.21,1.21,1.21,0,0,0,.43.14l.4.08a3.43,3.43,0,0,1,.44.09,1.38,1.38,0,0,1,.72.39A1.05,1.05,0,0,1,241.06,47.44Z"/><path class="cls-10" d="M243.15,44.27h-1.31v-.93h1.31Zm0,4.39h-1.23V44.82h1.23Z"/><path class="cls-10" d="M248.19,46.74a2,2,0,0,1-.55,1.49,2.46,2.46,0,0,1-3.1,0,2,2,0,0,1-.55-1.49,2,2,0,0,1,.56-1.49,2.07,2.07,0,0,1,1.54-.55,2.11,2.11,0,0,1,1.56.55A2,2,0,0,1,248.19,46.74Zm-1.51.93a.89.89,0,0,0,.18-.35,2.16,2.16,0,0,0,.06-.57,2.26,2.26,0,0,0-.06-.57,1,1,0,0,0-.17-.36.58.58,0,0,0-.27-.2.88.88,0,0,0-.33-.06,1,1,0,0,0-.31,0,.59.59,0,0,0-.27.19,1.21,1.21,0,0,0-.18.36,2.38,2.38,0,0,0-.07.59,2.12,2.12,0,0,0,.06.54,1.12,1.12,0,0,0,.17.38.74.74,0,0,0,.27.19.9.9,0,0,0,.34.06.87.87,0,0,0,.32-.06A.53.53,0,0,0,246.68,47.67Z"/><path class="cls-10" d="M252.93,48.66H251.7V46.75a3.67,3.67,0,0,0,0-.46.89.89,0,0,0-.08-.34.39.39,0,0,0-.2-.18.92.92,0,0,0-.37-.06,1.4,1.4,0,0,0-.34,0,2.07,2.07,0,0,0-.37.18v2.72h-1.23V44.82h1.23v.43a2.84,2.84,0,0,1,.63-.4,1.6,1.6,0,0,1,.67-.14,1.3,1.3,0,0,1,1,.37,1.51,1.51,0,0,1,.35,1.08Z"/><rect class="cls-11" x="170.5" y="26.5" width="41" height="41" rx="2.49"/><polygon class="cls-10" points="197.02 46.71 187.13 41 187.13 52.43 197.02 46.71"/><rect class="cls-11" x="122" y="26" width="41" height="41" rx="2.49"/><polygon class="cls-10" points="136.84 46.71 146.74 41 146.74 52.43 136.84 46.71"/><rect class="cls-11" x="74.5" y="26.5" width="41" height="41" rx="2.49"/><polygon class="cls-10" points="95 51.66 89.29 41.77 100.71 41.77 95 51.66"/><rect class="cls-11" x="26" y="26" width="41" height="41" rx="2.49"/><polygon class="cls-10" points="46.79 41.77 52.5 51.66 41.07 51.66 46.79 41.77"/><line class="cls-12" x1="269" y1="16" x2="315" y2="16"/><line class="cls-12" x1="354" y1="16.5" x2="400" y2="16.5"/><path class="cls-10" d="M322.65,18.46a3.21,3.21,0,0,1-1-.17,2.25,2.25,0,0,1-.83-.5,2.12,2.12,0,0,1-.53-.82,3.15,3.15,0,0,1-.19-1.15,3.21,3.21,0,0,1,.18-1.1,2.45,2.45,0,0,1,.53-.84,2.1,2.1,0,0,1,.82-.52,2.87,2.87,0,0,1,1.07-.19,3.45,3.45,0,0,1,.58,0,3.41,3.41,0,0,1,.48.09,3.22,3.22,0,0,1,.41.15l.33.15v1.23h-.15l-.24-.19a2.7,2.7,0,0,0-.33-.22,1.92,1.92,0,0,0-.41-.19,1.45,1.45,0,0,0-.47-.07,1.77,1.77,0,0,0-.52.08,1.36,1.36,0,0,0-.47.29,1.4,1.4,0,0,0-.32.52,2,2,0,0,0-.13.78,2,2,0,0,0,.14.79,1.3,1.3,0,0,0,.34.51,1.43,1.43,0,0,0,.46.27,1.81,1.81,0,0,0,.51.08,1.5,1.5,0,0,0,.47-.08,1.52,1.52,0,0,0,.43-.19,1.77,1.77,0,0,0,.32-.21l.23-.19h.14V18l-.37.16a2.2,2.2,0,0,1-.36.13,3.46,3.46,0,0,1-.47.11A3.25,3.25,0,0,1,322.65,18.46Z"/><path class="cls-10" d="M329.17,18.36h-1.24v-.42a3.45,3.45,0,0,1-.62.39,1.55,1.55,0,0,1-.68.14,1.23,1.23,0,0,1-1-.37,1.51,1.51,0,0,1-.35-1.08v-2.5h1.24v1.91c0,.19,0,.35,0,.48a1.12,1.12,0,0,0,.09.32.39.39,0,0,0,.2.18.92.92,0,0,0,.37.06,1.11,1.11,0,0,0,.34-.06,1,1,0,0,0,.37-.17V14.52h1.24Z"/><path class="cls-10" d="M333.67,17.14a1.1,1.1,0,0,1-.54,1,2.48,2.48,0,0,1-1.46.37,3.84,3.84,0,0,1-.93-.1,3.33,3.33,0,0,1-.67-.21v-1h.12l.21.14.34.17a3.88,3.88,0,0,0,.44.13,2.12,2.12,0,0,0,.52.06,1.36,1.36,0,0,0,.53-.08.27.27,0,0,0,.18-.24.23.23,0,0,0-.1-.2,1.15,1.15,0,0,0-.39-.13l-.38-.06-.42-.09a1.47,1.47,0,0,1-.78-.43,1.08,1.08,0,0,1-.25-.71,1.12,1.12,0,0,1,.53-.93,2.48,2.48,0,0,1,1.43-.36,4.49,4.49,0,0,1,.83.08,3.18,3.18,0,0,1,.61.19v1h-.1a2.45,2.45,0,0,0-.63-.3,2.16,2.16,0,0,0-.71-.12,1.25,1.25,0,0,0-.5.08c-.13,0-.2.13-.2.23a.26.26,0,0,0,.09.21,1.1,1.1,0,0,0,.44.14l.4.08.44.09a1.32,1.32,0,0,1,.71.4A1,1,0,0,1,333.67,17.14Z"/><path class="cls-10" d="M336.94,18.33l-.42.08a4.22,4.22,0,0,1-.55,0,1.69,1.69,0,0,1-1.07-.29,1.26,1.26,0,0,1-.35-1V15.36h-.5v-.84h.5V13.43h1.24v1.09h1.15v.84h-1.15v1.71a.6.6,0,0,0,.06.27.32.32,0,0,0,.17.19.66.66,0,0,0,.35.07.91.91,0,0,0,.25,0l.21-.07h.11Z"/><path class="cls-10" d="M341.6,16.44a2,2,0,0,1-.56,1.5,2.1,2.1,0,0,1-1.55.54,2.13,2.13,0,0,1-1.55-.54,2,2,0,0,1-.55-1.5A2,2,0,0,1,338,15a2.07,2.07,0,0,1,1.54-.55,2.15,2.15,0,0,1,1.56.55A2,2,0,0,1,341.6,16.44Zm-1.52.94a1,1,0,0,0,.18-.36,2.1,2.1,0,0,0,.06-.57,2.32,2.32,0,0,0-.06-.57,1,1,0,0,0-.17-.36.56.56,0,0,0-.26-.2,1,1,0,0,0-.34-.06,1,1,0,0,0-.31.05.59.59,0,0,0-.27.19,1.16,1.16,0,0,0-.18.37,2.35,2.35,0,0,0-.06.58,3,3,0,0,0,.05.55,1,1,0,0,0,.18.37.61.61,0,0,0,.26.19.9.9,0,0,0,.34.06,1.07,1.07,0,0,0,.32-.05A.61.61,0,0,0,340.08,17.38Z"/><path class="cls-10" d="M346.23,15.64v2.72H345V16.44c0-.18,0-.34,0-.47a.72.72,0,0,0-.08-.32.39.39,0,0,0-.18-.18.91.91,0,0,0-.7,0,1.79,1.79,0,0,0-.31.15v2.72h-1.24V14.52h1.24V15a2.82,2.82,0,0,1,.61-.39,1.34,1.34,0,0,1,.64-.14,1.26,1.26,0,0,1,.67.17,1.19,1.19,0,0,1,.45.49,4.18,4.18,0,0,1,.72-.49,1.59,1.59,0,0,1,.68-.17,1.16,1.16,0,0,1,.94.37,1.57,1.57,0,0,1,.33,1.07v2.5h-1.24V16.44c0-.19,0-.34,0-.48a.89.89,0,0,0-.07-.31.37.37,0,0,0-.19-.18.82.82,0,0,0-.35-.06.94.94,0,0,0-.3.05Z"/></g></g></svg>